<svg width="103" height="103" xmlns="http://www.w3.org/2000/svg">
<style>.x {
  fill: #53350a;
  fill-rule: evenodd;
}</style>
 <g>
  <rect fill="none" height="105" width="105" y="-1" x="-1"/>
 </g>
 <g>
  <path d="m60.223,38.30399l0,0c0.25,-0.242 0.509,-0.48 0.777,-0.71l-20,0a46.816,46.816 0 0 1 14.4,8a19.314,19.314 0 0 1 4.826,-7.29" class="x" />
  <path d="m51.5,24.59399a8.261,8.261 0 0 0 -8.5,8l17,0a8.26,8.26 0 0 0 -8.5,-8" class="x" />
  <path d="m33,74.59399l34,0a41.989,41.989 0 0 0 -34,-34l0,34z" class="x" />
  <path d="m70,65.59399l0,-28a14.326,14.326 0 0 0 -5.888,3.709a15.073,15.073 0 0 0 -4.112,7.928a46.1,46.1 0 0 1 10,16.363z" class="x" />
  <path d="m74.537,78.44099l-46.073,0l0,-46.075l9.7,0a13.338,13.338 0 1 1 26.675,0l9.7,0l0,46.075l-0.002,0zm-23.037,-78.435a51.426,51.426 0 1 0 51.427,51.426a51.428,51.428 0 0 0 -51.427,-51.426l0,0z" class="x" />
 </g>
</svg>